<svg width="24" height="24" viewBox="0 0 24 24" fill="none" xmlns="http://www.w3.org/2000/svg">
<g clip-path="url(#clip0_12_2)">
<path d="M11.7933 17.3948C11.9204 17.318 12.0796 17.318 12.2067 17.3948L17.3684 20.5102C17.6713 20.693 18.045 20.4214 17.9646 20.0768L16.5949 14.2051C16.5611 14.0605 16.6103 13.9091 16.7225 13.8119L21.2834 9.86075C21.5509 9.62907 21.4079 9.18977 21.0553 9.15986L15.0503 8.65039C14.9025 8.63785 14.7738 8.54451 14.7159 8.40791L12.3683 2.86895C12.2305 2.54374 11.7695 2.54374 11.6317 2.86895L9.28413 8.40791C9.22623 8.54451 9.09749 8.63785 8.94965 8.65039L2.94465 9.15986C2.59208 9.18977 2.44912 9.62907 2.71656 9.86075L7.27752 13.8119C7.38974 13.9091 7.43888 14.0605 7.40515 14.2051L6.03537 20.0768C5.95498 20.4214 6.32867 20.693 6.6316 20.5102L11.7933 17.3948Z" fill="#999696"/>
</g>
<defs>
<clipPath id="clip0_12_2">
<rect width="24" height="24" fill="white"/>
</clipPath>
</defs>
</svg>
