<svg width="32" height="32" viewBox="0 0 32 32" fill="none" xmlns="http://www.w3.org/2000/svg">
<path fill-rule="evenodd" clip-rule="evenodd" d="M10.5778 11.3837L24.3052 25.1012C25.6038 24.422 26.7911 23.549 27.8264 22.5122C30.3767 20.0009 31.8668 16.6083 31.9899 13.0324C32.0592 11.3074 31.7713 9.58674 31.144 7.97816C30.5168 6.36958 29.5638 4.90782 28.3448 3.68449C26.2816 1.67495 23.6083 0.407978 20.7456 0.0829759C17.8829 -0.242027 14.9934 0.393387 12.5316 1.88922C13.301 3.46522 13.5266 5.25142 13.1731 6.969C12.8197 8.68659 11.9071 10.2389 10.5778 11.3837Z" fill="#E8346C"/>
<path fill-rule="evenodd" clip-rule="evenodd" d="M8.22818 12.8034C7.31758 13.1606 6.349 13.3475 5.37075 13.3547C5.2895 15.6556 5.77171 17.9415 6.77547 20.0138C6.84397 20.1363 6.8705 20.2778 6.85101 20.4168C6.83152 20.5558 6.76708 20.6846 6.66752 20.7835L1.71233 24.2129C1.21835 24.5993 0.811021 25.085 0.516703 25.6385C0.222384 26.1921 0.0476287 26.8013 0.00374007 27.4266C-0.0199503 27.9572 0.0691102 28.4869 0.265058 28.9806C0.461005 29.4744 0.759395 29.9211 1.14058 30.2913L1.73366 30.8533C2.47051 31.5879 3.46895 32.0003 4.50979 32C5.08625 31.9776 5.65219 31.8386 6.17334 31.5914C6.6945 31.3442 7.16005 30.9939 7.54181 30.5617L11.1989 25.341C11.2958 25.2298 11.4269 25.154 11.5716 25.1253C11.7164 25.0966 11.8665 25.1167 11.9985 25.1825C14.9776 26.6429 18.3808 26.9915 21.5944 26.1654L8.22818 12.8034Z" fill="#FCC0A4"/>
<path fill-rule="evenodd" clip-rule="evenodd" d="M5.33476 10.6911C4.28039 10.6911 3.24969 10.3787 2.37301 9.79332C1.49632 9.20796 0.813033 8.37596 0.40954 7.40254C0.00604752 6.42912 -0.0995245 5.35799 0.106174 4.32461C0.311873 3.29123 0.819604 2.34201 1.56516 1.59699C2.31072 0.851962 3.26062 0.344594 4.29473 0.139042C5.32885 -0.0665103 6.40074 0.0389863 7.37486 0.442191C8.34898 0.845396 9.18157 1.5282 9.76735 2.40426C10.3531 3.28031 10.6658 4.31028 10.6658 5.3639C10.6658 6.77677 10.1041 8.13177 9.10437 9.13081C8.10461 10.1299 6.74864 10.6911 5.33476 10.6911Z" fill="#E6E6E6"/>
</svg>
