<svg width="72" height="24" viewBox="0 0 72 24" fill="none" xmlns="http://www.w3.org/2000/svg">
<g clip-path="url(#clip0_13_20)">
<path d="M11.7933 17.3948C11.9204 17.318 12.0796 17.318 12.2067 17.3948L17.3684 20.5102C17.6713 20.693 18.045 20.4214 17.9646 20.0768L16.5949 14.2051C16.5611 14.0605 16.6103 13.9091 16.7225 13.8119L21.2834 9.86075C21.5509 9.62907 21.4079 9.18977 21.0553 9.15986L15.0503 8.65039C14.9025 8.63785 14.7738 8.54451 14.7159 8.40791L12.3683 2.86895C12.2305 2.54374 11.7695 2.54374 11.6317 2.86895L9.28413 8.40791C9.22623 8.54451 9.09749 8.63785 8.94965 8.65039L2.94465 9.15986C2.59208 9.18977 2.44912 9.62907 2.71656 9.86075L7.27752 13.8119C7.38974 13.9091 7.43888 14.0605 7.40515 14.2051L6.03537 20.0768C5.95498 20.4214 6.32867 20.693 6.6316 20.5102L11.7933 17.3948Z" fill="#666464"/>
</g>
<g clip-path="url(#clip1_13_20)">
<path d="M35.7933 17.3948C35.9204 17.318 36.0796 17.318 36.2067 17.3948L41.3684 20.5102C41.6713 20.693 42.045 20.4214 41.9646 20.0768L40.5949 14.2051C40.5611 14.0605 40.6103 13.9091 40.7225 13.8119L45.2834 9.86075C45.5509 9.62907 45.4079 9.18977 45.0553 9.15986L39.0503 8.65039C38.9025 8.63785 38.7738 8.54451 38.7159 8.40791L36.3683 2.86895C36.2305 2.54374 35.7695 2.54374 35.6317 2.86895L33.2841 8.40791C33.2262 8.54451 33.0975 8.63785 32.9497 8.65039L26.9447 9.15986C26.5921 9.18977 26.4491 9.62907 26.7166 9.86075L31.2775 13.8119C31.3897 13.9091 31.4389 14.0605 31.4051 14.2051L30.0354 20.0768C29.955 20.4214 30.3287 20.693 30.6316 20.5102L35.7933 17.3948Z" fill="#666464"/>
</g>
<g clip-path="url(#clip2_13_20)">
<path d="M59.7933 17.3948C59.9204 17.318 60.0796 17.318 60.2067 17.3948L65.3684 20.5102C65.6713 20.693 66.045 20.4214 65.9646 20.0768L64.5949 14.2051C64.5611 14.0605 64.6103 13.9091 64.7225 13.8119L69.2834 9.86075C69.5509 9.62907 69.4079 9.18977 69.0553 9.15986L63.0503 8.65039C62.9025 8.63785 62.7738 8.54451 62.7159 8.40791L60.3683 2.86895C60.2305 2.54374 59.7695 2.54374 59.6317 2.86895L57.2841 8.40791C57.2262 8.54451 57.0975 8.63785 56.9497 8.65039L50.9447 9.15986C50.5921 9.18977 50.4491 9.62907 50.7166 9.86075L55.2775 13.8119C55.3897 13.9091 55.4389 14.0605 55.4051 14.2051L54.0354 20.0768C53.955 20.4214 54.3287 20.693 54.6316 20.5102L59.7933 17.3948Z" fill="#666464"/>
</g>
<defs>
<clipPath id="clip0_13_20">
<rect width="24" height="24" fill="white"/>
</clipPath>
<clipPath id="clip1_13_20">
<rect width="24" height="24" fill="white" transform="translate(24)"/>
</clipPath>
<clipPath id="clip2_13_20">
<rect width="24" height="24" fill="white" transform="translate(48)"/>
</clipPath>
</defs>
</svg>
